<?xml version="1.0" encoding="UTF-8" standalone="no"?>
<!DOCTYPE svg PUBLIC "-//W3C//DTD SVG 1.1//EN"
 "http://www.w3.org/Graphics/SVG/1.1/DTD/svg11.dtd">
<!-- Generated by graphviz version 2.26.3 (20100126.1600)
 -->
<!-- Title: union_find_node Pages: 1 -->
<svg width="149pt" height="86pt"
 viewBox="0.00 0.00 149.00 86.00" xmlns="http://www.w3.org/2000/svg" xmlns:xlink="http://www.w3.org/1999/xlink">
<g id="graph1" class="graph" transform="scale(1 1) rotate(0) translate(4 82)">
<title>union_find_node</title>
<polygon fill="white" stroke="white" points="-4,5 -4,-82 146,-82 146,5 -4,5"/>
<!-- Node1 -->
<g id="node1" class="node"><title>Node1</title>
<polygon fill="#bfbfbf" stroke="black" points="-0.5,-1 -0.5,-77 86.5,-77 86.5,-1 -0.5,-1"/>
<text text-anchor="middle" x="43" y="-64" font-family="Helvetica,sans-Serif" font-size="10.00">union_find_node</text>
<polyline fill="none" stroke="black" points="-0.5,-56 86.5,-56 "/>
<text text-anchor="start" x="7.5" y="-43" font-family="Helvetica,sans-Serif" font-size="10.00">+ rank</text>
<text text-anchor="start" x="7.5" y="-30" font-family="Helvetica,sans-Serif" font-size="10.00">+ children_n</text>
<polyline fill="none" stroke="black" points="-0.5,-22 86.5,-22 "/>
<text text-anchor="middle" x="43" y="-9" font-family="Helvetica,sans-Serif" font-size="10.00"> </text>
</g>
<!-- Node1&#45;&gt;Node1 -->
<g id="edge2" class="edge"><title>Node1&#45;&gt;Node1</title>
<path fill="none" stroke="#404040" d="M86.5912,-52.936C96.6276,-51.7352 104,-47.0898 104,-39 104,-34.5759 101.795,-31.1819 98.1554,-28.8181"/>
<polygon fill="none" stroke="#404040" points="98.0049,-28.7693 91.063,-30.7212 86.5912,-25.064 93.5332,-23.1121 98.0049,-28.7693"/>
<text text-anchor="middle" x="122.5" y="-36.5" font-family="Helvetica,sans-Serif" font-size="10.00"> +parent</text>
</g>
</g>
</svg>
